# Blender 4.0.2
# www.blender.org
mtllib cube2.mtl
o Cube
v 4.584879 0.000000 -1.630312
v 3.426424 -1.414214 -0.819152
v 5.732032 0.000000 0.007992
v 4.573576 -1.414214 0.819152
v 3.426424 1.414214 -0.819152
v 2.267968 -0.000000 -0.007992
v 4.573576 1.414214 0.819152
v 3.415121 -0.000000 1.630312
vn 0.5792 0.7071 -0.4056
vn 0.5736 -0.0000 0.8192
vn -0.5792 0.7071 0.4056
vn -0.5792 -0.7071 0.4056
vn 0.5792 -0.7071 -0.4056
vn -0.5736 -0.0000 -0.8192
vt 0.875000 0.500000
vt 0.625000 0.750000
vt 0.625000 0.500000
vt 0.375000 1.000000
vt 0.375000 0.750000
vt 0.625000 0.000000
vt 0.375000 0.250000
vt 0.375000 0.000000
vt 0.375000 0.500000
vt 0.125000 0.750000
vt 0.125000 0.500000
vt 0.625000 0.250000
vt 0.875000 0.750000
vt 0.625000 1.000000
s 0
usemtl Material
f 5/1/1 3/2/1 1/3/1
f 3/2/2 8/4/2 4/5/2
f 7/6/3 6/7/3 8/8/3
f 2/9/4 8/10/4 6/11/4
f 1/3/5 4/5/5 2/9/5
f 5/12/6 2/9/6 6/7/6
f 5/1/1 7/13/1 3/2/1
f 3/2/2 7/14/2 8/4/2
f 7/6/3 5/12/3 6/7/3
f 2/9/4 4/5/4 8/10/4
f 1/3/5 3/2/5 4/5/5
f 5/12/6 1/3/6 2/9/6
